<mxfile host="app.diagrams.net" modified="2022-11-11T08:20:38.059Z" agent="5.0 (Macintosh; Intel Mac OS X 10_14_6) AppleWebKit/537.36 (KHTML, like Gecko) Chrome/106.0.0.0 Safari/537.36" etag="QMcXpT1FZ_T7I2kpzsC6" version="20.4.1" type="github">
  <diagram id="sQN2p0aqFtWKJaLl-4fy" name="第 1 页">
    <mxGraphModel dx="1261" dy="712" grid="1" gridSize="10" guides="1" tooltips="1" connect="1" arrows="1" fold="1" page="1" pageScale="1" pageWidth="827" pageHeight="1169" math="0" shadow="0">
      <root>
        <mxCell id="0" />
        <mxCell id="1" parent="0" />
        <mxCell id="OWQ6Gbn3mK0FLl3WMq-w-32" style="edgeStyle=orthogonalEdgeStyle;rounded=0;orthogonalLoop=1;jettySize=auto;html=1;exitX=1;exitY=0;exitDx=0;exitDy=0;entryX=0;entryY=0;entryDx=0;entryDy=0;strokeWidth=3;fillColor=#dae8fc;strokeColor=#6c8ebf;" edge="1" parent="1" source="OWQ6Gbn3mK0FLl3WMq-w-1" target="OWQ6Gbn3mK0FLl3WMq-w-11">
          <mxGeometry relative="1" as="geometry">
            <Array as="points">
              <mxPoint x="320" y="80" />
              <mxPoint x="320" y="80" />
            </Array>
          </mxGeometry>
        </mxCell>
        <mxCell id="OWQ6Gbn3mK0FLl3WMq-w-1" value="&lt;font style=&quot;font-size: 15px;&quot;&gt;&lt;b&gt;File Header&lt;/b&gt;&lt;/font&gt;" style="rounded=0;whiteSpace=wrap;html=1;fillColor=#e1d5e7;strokeColor=#9673a6;" vertex="1" parent="1">
          <mxGeometry x="120" y="80" width="150" height="60" as="geometry" />
        </mxCell>
        <mxCell id="OWQ6Gbn3mK0FLl3WMq-w-2" value="Page Header" style="rounded=0;whiteSpace=wrap;html=1;fontSize=15;fontStyle=1" vertex="1" parent="1">
          <mxGeometry x="120" y="140" width="150" height="60" as="geometry" />
        </mxCell>
        <mxCell id="OWQ6Gbn3mK0FLl3WMq-w-3" value="Infinum+Supernum" style="rounded=0;whiteSpace=wrap;html=1;fillColor=#d5e8d4;strokeColor=#82b366;fontSize=15;fontStyle=1" vertex="1" parent="1">
          <mxGeometry x="120" y="200" width="150" height="60" as="geometry" />
        </mxCell>
        <mxCell id="OWQ6Gbn3mK0FLl3WMq-w-4" value="&lt;span style=&quot;font-size: 15px;&quot;&gt;&lt;font style=&quot;font-size: 15px;&quot;&gt;User Records&lt;/font&gt;&lt;/span&gt;" style="rounded=0;whiteSpace=wrap;html=1;fillColor=#f8cecc;strokeColor=#b85450;fontSize=15;fontStyle=1" vertex="1" parent="1">
          <mxGeometry x="120" y="260" width="150" height="120" as="geometry" />
        </mxCell>
        <mxCell id="OWQ6Gbn3mK0FLl3WMq-w-5" value="Free Space" style="rounded=0;whiteSpace=wrap;html=1;fillColor=#dae8fc;strokeColor=#6c8ebf;fontSize=15;fontStyle=1" vertex="1" parent="1">
          <mxGeometry x="120" y="380" width="150" height="90" as="geometry" />
        </mxCell>
        <mxCell id="OWQ6Gbn3mK0FLl3WMq-w-6" value="Page Directory&amp;nbsp;" style="rounded=0;whiteSpace=wrap;html=1;fillColor=#fff2cc;strokeColor=#d6b656;fontSize=15;fontStyle=1" vertex="1" parent="1">
          <mxGeometry x="120" y="470" width="150" height="60" as="geometry" />
        </mxCell>
        <mxCell id="OWQ6Gbn3mK0FLl3WMq-w-7" value="File Tailer" style="rounded=0;whiteSpace=wrap;html=1;fontSize=15;fontStyle=1" vertex="1" parent="1">
          <mxGeometry x="120" y="530" width="150" height="60" as="geometry" />
        </mxCell>
        <mxCell id="OWQ6Gbn3mK0FLl3WMq-w-33" style="edgeStyle=orthogonalEdgeStyle;rounded=0;orthogonalLoop=1;jettySize=auto;html=1;exitX=0;exitY=1;exitDx=0;exitDy=0;entryX=1;entryY=0;entryDx=0;entryDy=0;strokeWidth=3;fillColor=#dae8fc;strokeColor=#6c8ebf;" edge="1" parent="1" source="OWQ6Gbn3mK0FLl3WMq-w-11" target="OWQ6Gbn3mK0FLl3WMq-w-2">
          <mxGeometry relative="1" as="geometry">
            <Array as="points">
              <mxPoint x="290" y="140" />
              <mxPoint x="290" y="140" />
            </Array>
          </mxGeometry>
        </mxCell>
        <mxCell id="OWQ6Gbn3mK0FLl3WMq-w-34" style="edgeStyle=orthogonalEdgeStyle;rounded=0;orthogonalLoop=1;jettySize=auto;html=1;exitX=1;exitY=0;exitDx=0;exitDy=0;entryX=0;entryY=0;entryDx=0;entryDy=0;strokeWidth=3;fillColor=#dae8fc;strokeColor=#6c8ebf;" edge="1" parent="1" source="OWQ6Gbn3mK0FLl3WMq-w-11" target="OWQ6Gbn3mK0FLl3WMq-w-18">
          <mxGeometry relative="1" as="geometry">
            <Array as="points">
              <mxPoint x="590" y="80" />
              <mxPoint x="590" y="80" />
            </Array>
          </mxGeometry>
        </mxCell>
        <mxCell id="OWQ6Gbn3mK0FLl3WMq-w-11" value="&lt;font style=&quot;font-size: 15px;&quot;&gt;&lt;b&gt;File Header&lt;/b&gt;&lt;/font&gt;" style="rounded=0;whiteSpace=wrap;html=1;fillColor=#e1d5e7;strokeColor=#9673a6;" vertex="1" parent="1">
          <mxGeometry x="400" y="80" width="150" height="60" as="geometry" />
        </mxCell>
        <mxCell id="OWQ6Gbn3mK0FLl3WMq-w-12" value="Page Header" style="rounded=0;whiteSpace=wrap;html=1;fontSize=15;fontStyle=1" vertex="1" parent="1">
          <mxGeometry x="400" y="140" width="150" height="60" as="geometry" />
        </mxCell>
        <mxCell id="OWQ6Gbn3mK0FLl3WMq-w-13" value="Infinum+Supernum" style="rounded=0;whiteSpace=wrap;html=1;fillColor=#d5e8d4;strokeColor=#82b366;fontSize=15;fontStyle=1" vertex="1" parent="1">
          <mxGeometry x="400" y="200" width="150" height="60" as="geometry" />
        </mxCell>
        <mxCell id="OWQ6Gbn3mK0FLl3WMq-w-14" value="&lt;span style=&quot;font-size: 15px;&quot;&gt;&lt;font style=&quot;font-size: 15px;&quot;&gt;User Records&lt;/font&gt;&lt;/span&gt;" style="rounded=0;whiteSpace=wrap;html=1;fillColor=#f8cecc;strokeColor=#b85450;fontSize=15;fontStyle=1" vertex="1" parent="1">
          <mxGeometry x="400" y="260" width="150" height="120" as="geometry" />
        </mxCell>
        <mxCell id="OWQ6Gbn3mK0FLl3WMq-w-15" value="Free Space" style="rounded=0;whiteSpace=wrap;html=1;fillColor=#dae8fc;strokeColor=#6c8ebf;fontSize=15;fontStyle=1" vertex="1" parent="1">
          <mxGeometry x="400" y="380" width="150" height="90" as="geometry" />
        </mxCell>
        <mxCell id="OWQ6Gbn3mK0FLl3WMq-w-16" value="Page Directory&amp;nbsp;" style="rounded=0;whiteSpace=wrap;html=1;fillColor=#fff2cc;strokeColor=#d6b656;fontSize=15;fontStyle=1" vertex="1" parent="1">
          <mxGeometry x="400" y="470" width="150" height="60" as="geometry" />
        </mxCell>
        <mxCell id="OWQ6Gbn3mK0FLl3WMq-w-17" value="File Tailer" style="rounded=0;whiteSpace=wrap;html=1;fontSize=15;fontStyle=1" vertex="1" parent="1">
          <mxGeometry x="400" y="530" width="150" height="60" as="geometry" />
        </mxCell>
        <mxCell id="OWQ6Gbn3mK0FLl3WMq-w-36" style="edgeStyle=orthogonalEdgeStyle;rounded=0;orthogonalLoop=1;jettySize=auto;html=1;exitX=1;exitY=0;exitDx=0;exitDy=0;entryX=0;entryY=0;entryDx=0;entryDy=0;strokeWidth=3;fillColor=#dae8fc;strokeColor=#6c8ebf;" edge="1" parent="1" source="OWQ6Gbn3mK0FLl3WMq-w-18" target="OWQ6Gbn3mK0FLl3WMq-w-25">
          <mxGeometry relative="1" as="geometry">
            <Array as="points">
              <mxPoint x="860" y="80" />
              <mxPoint x="860" y="80" />
            </Array>
          </mxGeometry>
        </mxCell>
        <mxCell id="OWQ6Gbn3mK0FLl3WMq-w-39" style="edgeStyle=orthogonalEdgeStyle;rounded=0;orthogonalLoop=1;jettySize=auto;html=1;exitX=0;exitY=1;exitDx=0;exitDy=0;entryX=1;entryY=0;entryDx=0;entryDy=0;strokeWidth=3;fillColor=#dae8fc;strokeColor=#6c8ebf;" edge="1" parent="1" source="OWQ6Gbn3mK0FLl3WMq-w-18" target="OWQ6Gbn3mK0FLl3WMq-w-12">
          <mxGeometry relative="1" as="geometry">
            <mxPoint x="580" y="130" as="targetPoint" />
            <Array as="points">
              <mxPoint x="640" y="140" />
              <mxPoint x="640" y="140" />
            </Array>
          </mxGeometry>
        </mxCell>
        <mxCell id="OWQ6Gbn3mK0FLl3WMq-w-18" value="&lt;font style=&quot;font-size: 15px;&quot;&gt;&lt;b&gt;File Header&lt;/b&gt;&lt;/font&gt;" style="rounded=0;whiteSpace=wrap;html=1;fillColor=#e1d5e7;strokeColor=#9673a6;" vertex="1" parent="1">
          <mxGeometry x="677" y="80" width="150" height="60" as="geometry" />
        </mxCell>
        <mxCell id="OWQ6Gbn3mK0FLl3WMq-w-19" value="Page Header" style="rounded=0;whiteSpace=wrap;html=1;fontSize=15;fontStyle=1" vertex="1" parent="1">
          <mxGeometry x="677" y="140" width="150" height="60" as="geometry" />
        </mxCell>
        <mxCell id="OWQ6Gbn3mK0FLl3WMq-w-20" value="Infinum+Supernum" style="rounded=0;whiteSpace=wrap;html=1;fillColor=#d5e8d4;strokeColor=#82b366;fontSize=15;fontStyle=1" vertex="1" parent="1">
          <mxGeometry x="677" y="200" width="150" height="60" as="geometry" />
        </mxCell>
        <mxCell id="OWQ6Gbn3mK0FLl3WMq-w-21" value="&lt;span style=&quot;font-size: 15px;&quot;&gt;&lt;font style=&quot;font-size: 15px;&quot;&gt;User Records&lt;/font&gt;&lt;/span&gt;" style="rounded=0;whiteSpace=wrap;html=1;fillColor=#f8cecc;strokeColor=#b85450;fontSize=15;fontStyle=1" vertex="1" parent="1">
          <mxGeometry x="677" y="260" width="150" height="120" as="geometry" />
        </mxCell>
        <mxCell id="OWQ6Gbn3mK0FLl3WMq-w-22" value="Free Space" style="rounded=0;whiteSpace=wrap;html=1;fillColor=#dae8fc;strokeColor=#6c8ebf;fontSize=15;fontStyle=1" vertex="1" parent="1">
          <mxGeometry x="677" y="380" width="150" height="90" as="geometry" />
        </mxCell>
        <mxCell id="OWQ6Gbn3mK0FLl3WMq-w-23" value="Page Directory&amp;nbsp;" style="rounded=0;whiteSpace=wrap;html=1;fillColor=#fff2cc;strokeColor=#d6b656;fontSize=15;fontStyle=1" vertex="1" parent="1">
          <mxGeometry x="677" y="470" width="150" height="60" as="geometry" />
        </mxCell>
        <mxCell id="OWQ6Gbn3mK0FLl3WMq-w-24" value="File Tailer" style="rounded=0;whiteSpace=wrap;html=1;fontSize=15;fontStyle=1" vertex="1" parent="1">
          <mxGeometry x="677" y="530" width="150" height="60" as="geometry" />
        </mxCell>
        <mxCell id="OWQ6Gbn3mK0FLl3WMq-w-25" value="&lt;font style=&quot;font-size: 15px;&quot;&gt;&lt;b&gt;File Header&lt;/b&gt;&lt;/font&gt;" style="rounded=0;whiteSpace=wrap;html=1;fillColor=#e1d5e7;strokeColor=#9673a6;" vertex="1" parent="1">
          <mxGeometry x="960" y="80" width="150" height="60" as="geometry" />
        </mxCell>
        <mxCell id="OWQ6Gbn3mK0FLl3WMq-w-38" style="edgeStyle=orthogonalEdgeStyle;rounded=0;orthogonalLoop=1;jettySize=auto;html=1;exitX=0;exitY=0;exitDx=0;exitDy=0;entryX=1;entryY=0;entryDx=0;entryDy=0;strokeWidth=3;fillColor=#dae8fc;strokeColor=#6c8ebf;" edge="1" parent="1" source="OWQ6Gbn3mK0FLl3WMq-w-26" target="OWQ6Gbn3mK0FLl3WMq-w-19">
          <mxGeometry relative="1" as="geometry">
            <Array as="points">
              <mxPoint x="880" y="140" />
              <mxPoint x="880" y="140" />
            </Array>
          </mxGeometry>
        </mxCell>
        <mxCell id="OWQ6Gbn3mK0FLl3WMq-w-26" value="Page Header" style="rounded=0;whiteSpace=wrap;html=1;fontSize=15;fontStyle=1" vertex="1" parent="1">
          <mxGeometry x="960" y="140" width="150" height="60" as="geometry" />
        </mxCell>
        <mxCell id="OWQ6Gbn3mK0FLl3WMq-w-27" value="Infinum+Supernum" style="rounded=0;whiteSpace=wrap;html=1;fillColor=#d5e8d4;strokeColor=#82b366;fontSize=15;fontStyle=1" vertex="1" parent="1">
          <mxGeometry x="960" y="200" width="150" height="60" as="geometry" />
        </mxCell>
        <mxCell id="OWQ6Gbn3mK0FLl3WMq-w-28" value="&lt;span style=&quot;font-size: 15px;&quot;&gt;&lt;font style=&quot;font-size: 15px;&quot;&gt;User Records&lt;/font&gt;&lt;/span&gt;" style="rounded=0;whiteSpace=wrap;html=1;fillColor=#f8cecc;strokeColor=#b85450;fontSize=15;fontStyle=1" vertex="1" parent="1">
          <mxGeometry x="960" y="260" width="150" height="120" as="geometry" />
        </mxCell>
        <mxCell id="OWQ6Gbn3mK0FLl3WMq-w-29" value="Free Space" style="rounded=0;whiteSpace=wrap;html=1;fillColor=#dae8fc;strokeColor=#6c8ebf;fontSize=15;fontStyle=1" vertex="1" parent="1">
          <mxGeometry x="960" y="380" width="150" height="90" as="geometry" />
        </mxCell>
        <mxCell id="OWQ6Gbn3mK0FLl3WMq-w-30" value="Page Directory&amp;nbsp;" style="rounded=0;whiteSpace=wrap;html=1;fillColor=#fff2cc;strokeColor=#d6b656;fontSize=15;fontStyle=1" vertex="1" parent="1">
          <mxGeometry x="960" y="470" width="150" height="60" as="geometry" />
        </mxCell>
        <mxCell id="OWQ6Gbn3mK0FLl3WMq-w-31" value="File Tailer" style="rounded=0;whiteSpace=wrap;html=1;fontSize=15;fontStyle=1" vertex="1" parent="1">
          <mxGeometry x="960" y="530" width="150" height="60" as="geometry" />
        </mxCell>
      </root>
    </mxGraphModel>
  </diagram>
</mxfile>
